<svg xmlns="http://www.w3.org/2000/svg" viewBox="0 0 875.55 277.74"><defs><style>.cls-1{font-size:89.09px;font-family:EdwardianScriptITC, Edwardian Script ITC;}.cls-1,.cls-2{fill:#204188;}.cls-3{fill:#1f4288;}</style></defs><g id="LogoNom_Typo"><text class="cls-1" transform="translate(0 248.5)">Colegio Nueva Era Americano</text></g><g id="Logo"><path class="cls-2" d="M571,172V89H550v31L539.2,89H513V226h58V208H534V196h22V179H534v-7Zm-18.56,12-.05,6H528.71l-.05,23H565v6H519V95h15.34l19.44,48H555V95h10v70H528v19Z" transform="translate(-83.26 -89)"/><path class="cls-2" d="M528,105.69V157h25.78Zm5,17.92L545.94,152H533Z" transform="translate(-83.26 -89)"/><path class="cls-3" d="M363.78,97.17c-.92,0-2,1.08-2,1.69a2.49,2.49,0,0,0,2,1.85c7.49,0,67.67.48,67.67.48l.05.88s-57.62,1.5-67.7,2.17a1.54,1.54,0,0,0-1.48,1.56,1.47,1.47,0,0,0,1.4,1.34c10.16.71,66.57.83,66.57.83v.94S371,110.34,363.63,111a1.52,1.52,0,0,0-1.48,1.37,1.92,1.92,0,0,0,1.6,1.42c5.41.06,63.11,1.59,63.11,1.59l.1,1.17s-55.33.83-63.78,1.57a1.24,1.24,0,0,0-1,1.14,1.1,1.1,0,0,0,1.08,1c13.67.14,76.14,1.48,76.14,1.48s.65-7.57,4.6-7c3.32.47,5.25,7.3,5.25,7.3l.13,21.16a7,7,0,0,0,.64,1.74c.55.91,1.09.94,1.09.94l23.14,0,.12-55.07L461,90.71s-1.57,5.14-5.44,5.14-5.82-5.19-5.82-5.19-82.35-1.09-86.56,0c-.66.16-1.42.68-1.41,1.25s.77.85,1.36.9c7.2.64,68.84,1.24,68.84,1.24l-.1.92S373.06,96.89,363.78,97.17Z" transform="translate(-83.26 -89)"/><path class="cls-3" d="M474.62,160H450.45a4.48,4.48,0,0,0-1.06,1.21,3.44,3.44,0,0,0-.47,1.51l.15,24.9s.61,9.43-4.93,10c-3.25.33-4.41-3.11-4.41-3.11s-65.56.5-76.69,1.27c-.53,0-1.14.29-1.14,1A1.11,1.11,0,0,0,363,197.8c8.76.54,63.92,1.85,63.92,1.85l-.06.91s-54.47,1.43-63.75,1.8c-.53,0-1.34.11-1.34,1.22,0,.74.91,1,1.4,1,10.3.48,67.22,2.7,67.22,2.7l.06.83s-59.34.31-66.89.65c-.56,0-1.13.26-1.16,1.31a1.31,1.31,0,0,0,1.05,1.43C373.68,211.76,431,214,431,214v1s-57.29.23-67.34.4a1.4,1.4,0,0,0-1.22,1.48,2.22,2.22,0,0,0,1.51,1.82c8.85.31,68.12,2.48,68.12,2.48l-.06,1s-58,.51-67.11,1c-.48,0-1.26.14-1.26,1a1.33,1.33,0,0,0,1.3,1.32c10.42,0,80.78.17,80.78.17s12.16-.28,20.55-9.07c6.79-7.11,8.25-17.47,8.63-21.35S474.62,160,474.62,160Z" transform="translate(-83.26 -89)"/><path class="cls-3" d="M436.7,159.6l-73.09.91a1.28,1.28,0,0,0-1.1,1.29c0,1,1.1,1,1.1,1l72.74,1a2.3,2.3,0,0,0,2-2.24C438.37,160.2,436.7,159.6,436.7,159.6Z" transform="translate(-83.26 -89)"/><path class="cls-3" d="M436.7,145l-73.09.91a1.28,1.28,0,0,0-1.1,1.29c0,1,1.1,1,1.1,1l72.74,1a2.3,2.3,0,0,0,2-2.24C438.37,145.63,436.7,145,436.7,145Z" transform="translate(-83.26 -89)"/><path class="cls-3" d="M436.7,152.31l-73.09.91a1.28,1.28,0,0,0-1.1,1.29c0,1,1.1,1,1.1,1l72.74,1a2.3,2.3,0,0,0,2-2.24C438.37,152.91,436.7,152.31,436.7,152.31Z" transform="translate(-83.26 -89)"/><path class="cls-3" d="M436.7,166.89l-73.09.91a1.28,1.28,0,0,0-1.1,1.29c0,1,1.1,1,1.1,1l72.74,1a2.3,2.3,0,0,0,2-2.24C438.37,167.49,436.7,166.89,436.7,166.89Z" transform="translate(-83.26 -89)"/><path class="cls-3" d="M436.7,174.18l-73.09.91a1.28,1.28,0,0,0-1.1,1.29c0,1,1.1,1,1.1,1l72.74,1a2.3,2.3,0,0,0,2-2.24C438.37,174.78,436.7,174.18,436.7,174.18Z" transform="translate(-83.26 -89)"/><path class="cls-3" d="M436.7,181.47l-73.09.91a1.28,1.28,0,0,0-1.1,1.29c0,1,1.1,1,1.1,1l72.74,1a2.31,2.31,0,0,0,2-2.24C438.37,182.07,436.7,181.47,436.7,181.47Z" transform="translate(-83.26 -89)"/><path class="cls-3" d="M363.61,189.67a1.28,1.28,0,0,0-1.1,1.29c0,1,1.1,1,1.1,1l72.74,1a2.31,2.31,0,0,0,2-2.24c0-1.37-1.67-2-1.67-2Z" transform="translate(-83.26 -89)"/><path class="cls-3" d="M436.7,137.73l-73.09.91a1.28,1.28,0,0,0-1.1,1.29c0,1,1.1,1,1.1,1l72.74,1a2.29,2.29,0,0,0,2-2.23C438.37,138.34,436.7,137.73,436.7,137.73Z" transform="translate(-83.26 -89)"/><path class="cls-3" d="M436.7,130.44l-73.09.91a1.3,1.3,0,0,0-1.1,1.29c0,1,1.1,1,1.1,1l72.74,1a2.31,2.31,0,0,0,2-2.24C438.37,131.05,436.7,130.44,436.7,130.44Z" transform="translate(-83.26 -89)"/><path class="cls-3" d="M436.7,123.15l-73.09.91a1.3,1.3,0,0,0-1.1,1.29c0,1,1.1,1,1.1,1l72.74,1a2.31,2.31,0,0,0,2-2.24C438.37,123.76,436.7,123.15,436.7,123.15Z" transform="translate(-83.26 -89)"/><path class="cls-3" d="M613.35,202.25c-.46-3.42,2.61-17.65,2.61-17.65l20.37-.06.91,5.08s60-1.67,68-2.24c.57,0,.59-.86.59-1s-.14-1.3-.76-1.31c-10-.23-75.17-2.6-75.17-2.6l.07-.89s64.29.44,74.05-.21c1.28-.09,1.12-1.28,1.11-1.54s.07-1.16-1.28-1.26c-12.13-.85-74.18-2.43-74.18-2.43l-.16-.83s64.32-.24,74.85-.95c1.06-.07,1.2-1.42,1.2-1.62a1.91,1.91,0,0,0-1.48-1.28c-12.25-.77-74.41-1.09-74.41-1.09l-.15-.87s68.52-1.95,73.79-2c.64,0,.94-.86.94-1.1,0-.4-.14-1.29-.89-1.32-14.06-.63-86.27.53-86.27.53l7.84-37.8s68.13-1.2,79.32-1.91a1,1,0,0,0,.91-1.08,1.09,1.09,0,0,0-1.07-1.2c-13.45-.51-76.7-.29-76.7-.29l.23-1.23s66.23-1.33,76.74-1.84c.76,0,1.14-1.06,1.14-1.31s-.45-1.18-.88-1.2c-11.19-.45-75.71-.73-75.71-.73l.23-1s64.71-1.67,75.82-2.16c.56,0,1-1,1-1.28a1.52,1.52,0,0,0-1.32-1.14c-13.24-.51-75.07-2.62-75.07-2.62l-.08-.92s62.48-.19,74.3-.45c.58,0,.88-.51.91-1.36a1.24,1.24,0,0,0-1-1.37c-12.55-.6-74.85-2.14-74.85-2.14l.19-.91s60.91-.31,74.15-.91c.91,0,1.4-1.19,1.4-1.42s-.2-1.41-1.23-1.42C689.69,97.72,629,97,629,97l-.23-1s62.94-2.06,73.65-2.2c1.51,0,1.5-.95,1.5-1.23s-.3-1.22-1.73-1.28c-14-.55-89.82.91-89.82.91l-19.13,108.8s.22,4.28-5.09,7.32l.38,17.63h29.16l.3-17.94S613.8,205.67,613.35,202.25Z" transform="translate(-83.26 -89)"/><path class="cls-3" d="M703,129.78,627.79,129a2,2,0,0,0-1.43,1.76c0,1.31,1.54,1.45,1.54,1.45l75.06-.79s1.09-.17,1.09-.81S703,129.78,703,129.78Z" transform="translate(-83.26 -89)"/><path class="cls-3" d="M703,133.42l-73.41-.74a2,2,0,0,0-1.4,1.77c0,1.31,1.51,1.45,1.51,1.45l73.3-.8s1.06-.17,1.06-.81S703,133.42,703,133.42Z" transform="translate(-83.26 -89)"/><path class="cls-3" d="M703,138.89l-71.64-.74a2,2,0,0,0-1.37,1.76c0,1.31,1.48,1.46,1.48,1.46l71.53-.8s1-.17,1-.81S703,138.89,703,138.89Z" transform="translate(-83.26 -89)"/><path class="cls-3" d="M703,144.36l-69.88-.74a2,2,0,0,0-1.33,1.76c0,1.31,1.43,1.45,1.43,1.45L703,146s1-.17,1-.82S703,144.36,703,144.36Z" transform="translate(-83.26 -89)"/><path class="cls-3" d="M703.06,149.82,635,149.08a2,2,0,0,0-1.3,1.77c0,1.31,1.4,1.45,1.4,1.45l68-.8s1-.17,1-.81S703.06,149.82,703.06,149.82Z" transform="translate(-83.26 -89)"/><path class="cls-3" d="M703.09,155.29l-66.35-.74a2,2,0,0,0-1.27,1.76,1.5,1.5,0,0,0,1.36,1.46l66.26-.8s1-.17,1-.81S703.09,155.29,703.09,155.29Z" transform="translate(-83.26 -89)"/><path class="cls-3" d="M638.53,160a2,2,0,0,0-1.24,1.76,1.47,1.47,0,0,0,1.33,1.45l64.49-.79s.94-.17.94-.81-.94-.87-.94-.87Z" transform="translate(-83.26 -89)"/><path class="cls-3" d="M637.33,190.44s.1-.05.16-.08C637.37,190.38,637.31,190.41,637.33,190.44Z" transform="translate(-83.26 -89)"/><path class="cls-3" d="M704.81,191.14s-63.24-1.49-67.27-.79c.61,1.08.57,4.92.57,4.92L705,193.74s1-.56,1-1.26S704.81,191.14,704.81,191.14Z" transform="translate(-83.26 -89)"/><path class="cls-3" d="M637.49,190.36h0S637.51,190.35,637.49,190.36Z" transform="translate(-83.26 -89)"/><path class="cls-3" d="M704.25,199.45s1.48-.39,1.52-1.72a1.87,1.87,0,0,0-1.39-1.73H638l.33,4.46C638.19,201.16,704.25,199.45,704.25,199.45Z" transform="translate(-83.26 -89)"/><path class="cls-3" d="M634.87,206.7l68.46-1.37s1.26-.62,1.26-1.6-1.33-1.73-1.33-1.73H638.17S638,205.92,634.87,206.7Z" transform="translate(-83.26 -89)"/><path class="cls-3" d="M704.31,208.38l-72.67-.14.07,4,72.88-.77s1.36-.85,1.36-1.86S704.31,208.38,704.31,208.38Z" transform="translate(-83.26 -89)"/><path class="cls-3" d="M705.47,217.14a2,2,0,0,0-.58-1.48L632,213.21v6.1l72.63-.7A1.81,1.81,0,0,0,705.47,217.14Z" transform="translate(-83.26 -89)"/><path class="cls-3" d="M704.76,222.31,632,220.49V226l72.93-.91a1.42,1.42,0,0,0-.17-2.74Z" transform="translate(-83.26 -89)"/></g></svg>